Coordinates
nRows=4
nColumns=38

# SIMM Motion File Header:
name Coordinates
datacolumns 38
datarows 4
otherdata 1
range 0.54461999999999999000 0.54762000000000000000

Units are S.I. units (second, meters, Newtons, ...)
Angles are in degrees.

endheader
time	pelvis_tilt	pelvis_list	pelvis_rotation	pelvis_tx	pelvis_ty	pelvis_tz	hip_flexion_r	hip_adduction_r	hip_rotation_r	knee_angle_r	ankle_angle_r	subtalar_angle_r	mtp_angle_r	hip_flexion_l	hip_adduction_l	hip_rotation_l	knee_angle_l	ankle_angle_l	subtalar_angle_l	mtp_angle_l	lumbar_extension	lumbar_bending	lumbar_rotation	arm_flex_r	arm_add_r	arm_rot_r	elbow_flex_r	pro_sup_r	wrist_flex_r	wrist_dev_r	arm_flex_l	arm_add_l	arm_rot_l	elbow_flex_l	pro_sup_l	wrist_flex_l	wrist_dev_l
      0.54461999999999999000	     -1.80346065548171650000	      0.24907164097371851000	     -3.08391077488346130000	      1.05500492611220010000	      1.04543995821069060000	     -0.30474689410383998000	      1.42924906185089420000	      5.80901261462907480000	      6.61853989489379830000	    -51.33798944562456500000	    -16.70023897986057900000	      0.00000000000003254718	     -0.00000000000024191115	     22.78968352683243400000	      2.25310665022161730000	      0.03250666251706049700	    -20.98629895160520300000	    -17.06343843571448100000	     -0.00000000000000117361	      0.00000000000002638738	     -8.27467084399284760000	     -1.62598067088724510000	      7.56224011399219260000	    -26.63712987276828100000	    -11.20776495552307000000	     -4.95114353548988540000	     90.94637013611145400000	     79.10196913983573100000	      0.00000000000002247861	      0.00000000000006075656	    -48.61070082731302500000	    -16.78543875002989700000	     -8.85253198680003810000	    106.42840175105435000000	     84.35028474573201200000	     -0.00000000000000359036	      0.00000000000000260208
      0.54561999999999999000	     -1.72706049361053600000	      0.26748098853236740000	     -3.05441293825422020000	      1.05495344358950400000	      1.04508356328264900000	     -0.30478835294726520000	      1.52009462046857860000	      5.81787623106760600000	      6.60311891973312100000	    -51.74422954246410500000	    -16.53685338690383900000	      0.00000000000003251383	     -0.00000000000024300576	     22.70736920002332200000	      2.31756635518447810000	      0.09905077204734540100	    -21.12866086893701100000	    -17.05776505270950200000	     -0.00000000000000118092	      0.00000000000002652787	     -8.36634717998916950000	     -1.67251283817160430000	      7.47802299579470820000	    -26.71084615482745800000	    -11.18171299618259000000	     -4.96392522208493240000	     90.77279193408747900000	     79.04111704094732700000	      0.00000000000002256250	      0.00000000000006097267	    -48.56418164587777400000	    -16.83701540410418900000	     -8.84019360309481610000	    106.47466399106175000000	     84.31233633049977500000	     -0.00000000000000360878	      0.00000000000000261297
      0.54661999999999999000	     -1.65113172069278650000	      0.28546111365441151000	     -3.02522423967232830000	      1.05490217081835320000	      1.04471601658555050000	     -0.30483065393903391000	      1.61244968243526720000	      5.82648932501647820000	      6.58625581519791230000	    -52.15060484956553900000	    -16.37161547281739600000	      0.00000000000003248191	     -0.00000000000024410099	     22.62608856859427000000	      2.38187388332754280000	      0.16804495050508164000	    -21.27709050726877700000	    -17.04242605267219100000	     -0.00000000000000118877	      0.00000000000002666898	     -8.45735373282998280000	     -1.71820258275984550000	      7.39396560054443870000	    -26.78524163621160500000	    -11.15582010631433000000	     -4.97675744276319070000	     90.59772857733509000000	     78.97904170636078900000	      0.00000000000002264666	      0.00000000000006118837	    -48.51625676045635100000	    -16.88892456287542700000	     -8.82712026201619260000	    106.51963786846004000000	     84.27494043302554900000	     -0.00000000000000362757	      0.00000000000000262414
      0.54762000000000000000	     -1.57571565656653760000	      0.30297314407878417000	     -2.99635766713027560000	      1.05485112872657940000	      1.04433724672241430000	     -0.30487374418047319000	      1.70635478897859570000	      5.83486670084696080000	      6.56794846899436100000	    -52.55707385961318300000	    -16.20479107453329000000	      0.00000000000003245060	     -0.00000000000024519699	     22.54584537775509600000	      2.44596679172898670000	      0.23944371153427541000	    -21.43152370630442100000	    -17.01682802756478500000	     -0.00000000000000119685	      0.00000000000002681062	     -8.54764030495683260000	     -1.76301544645534400000	      7.31006983419311760000	    -26.86029452327336000000	    -11.13008647268685200000	     -4.98963103369083780000	     90.42120601573103000000	     78.91574875459880900000	      0.00000000000002273094	      0.00000000000006140335	    -48.46694915529550900000	    -16.94115183562561100000	     -8.81333998681004440000	    106.56333865044466000000	     84.23807469527965000000	     -0.00000000000000364655	      0.00000000000000263562
